<?xml version="1.0" encoding="utf-8"?><svg xmlns="http://www.w3.org/2000/svg" xmlns:xlink="http://www.w3.org/1999/xlink"><symbol viewBox="0 0 186.861 110.966" id="stars1" xmlns="http://www.w3.org/2000/svg"><circle fill="#FFF" cx="70.704" cy="105.783" r="5.182"/><circle fill="#FFF" cx="5.183" cy="78.269" r="5.183"/><circle fill="#FFF" cx="121.8" cy="63.519" r="2.848"/><circle fill="#FFF" cx="48.859" cy="49.678" r="2.848"/><circle fill="#FFF" cx="33.16" cy="17.826" r="2.848"/><circle fill="#FFF" cx="87.597" cy="7.948" r="2.848"/><path fill="none" stroke="#FFF" stroke-width=".75" stroke-miterlimit="10" d="M5.183 78.269l65.521 27.513 51.097-42.263z"/><path fill="none" stroke="#FFF" stroke-width=".75" stroke-miterlimit="10" d="M33.16 17.825L5.183 78.269l65.521 27.513L88.01 7.825zm15.699 31.852l72.942 13.842"/><circle fill="#FFF" cx="181.678" cy="93.211" r="5.182"/><circle fill="#FFF" cx="136.611" cy="5.184" r="5.183"/><circle fill="#FFF" cx="176.274" cy="27.121" r="2.848"/><circle fill="#FFF" cx="123.17" cy="79.005" r="2.848"/><circle fill="#FFF" cx="88.066" cy="73.644" r="2.848"/><circle fill="#FFF" cx="111.13" cy="23.354" r="2.848"/><path fill="none" stroke="#FFF" stroke-width=".75" stroke-miterlimit="10" d="M123.17 79.005l58.508 14.205-5.404-66.09z"/><path fill="none" stroke="#FFF" stroke-width=".75" stroke-miterlimit="10" d="M88.065 73.644l48.546-68.461 45.067 88.027-70.413-70.265zm35.104 5.36l53.105-51.884"/></symbol><symbol viewBox="0 0 171.5 132.5" id="stars2" xmlns="http://www.w3.org/2000/svg"><circle fill="#FFF" cx="4.25" cy="92.25" r="4.25"/><circle fill="#FFF" cx="48.25" cy="128.25" r="4.25"/><circle fill="#FFF" cx="72.75" cy="52.75" r="4.75"/><circle fill="#FFF" cx="8.25" cy="22.25" r="4.25"/><circle fill="#FFF" cx="117.25" cy="96.25" r="2.75"/><circle fill="#FFF" cx="126.25" cy="41.25" r="1.911"/><circle fill="#FFF" cx="167.25" cy="4.25" r="4.25"/><path fill="none" stroke="#FFF" stroke-miterlimit="10" d="M72.75 52.75l44.5 43.5-113-4 44 36 69-32 50-92-41 37-53.5 13.084L8.25 22.25m40 109.084L8.5 24.339"/></symbol><symbol viewBox="0 0 103.03 124.03" id="stars3" xmlns="http://www.w3.org/2000/svg"><circle fill="#FFF" cx="5.182" cy="60.182" r="5.182"/><circle fill="#FFF" cx="50.182" cy="5.182" r="5.182"/><circle fill="#FFF" cx="31.182" cy="121.182" r="2.848"/><circle fill="#FFF" cx="65.182" cy="55.182" r="2.848"/><circle fill="#FFF" cx="100.182" cy="49.182" r="2.848"/><circle fill="#FFF" cx="94.182" cy="104.182" r="2.848"/><path fill="none" stroke="#FFF" stroke-width=".75" stroke-miterlimit="10" d="M50.183 5.182l-45 55 26 61.001z"/><path fill="none" stroke="#FFF" stroke-width=".75" stroke-miterlimit="10" d="M100.183 49.182l-50-44-45 55 89 44.43zm-35 6l-34 66.001"/></symbol></svg>